# OBJ written from D:\Modoproj\Unity_Stuff\Japanese Lanterns Pack\fence_v1.obj
# Units	meters

o fence_v1
v -0.0554849 0.00439002 -0.0548
v 0.0541149 0.00439002 -0.0548
v 0.0541149 0.00439002 0.0548
v -0.0554849 0.00439002 0.0548
v -0.0554849 0.701358 -0.0548
v -0.024249 0.732646 -0.023564
v 0.0541149 0.701858 -0.0548
v 0.022879 0.733002 -0.023564
v 0.0541149 0.7017 0.0548
v 0.022879 0.73292 0.023564
v -0.0554849 0.70085 0.0548
v -0.024249 0.732516 0.023564
v -0.0541149 0.391112 -0.055485
v 0.0554849 0.391112 -0.055485
v 0.0554849 0.391112 0.054115
v -0.0541149 0.391112 0.054115
vn 0 -1 0
vn -0.00563719 0.704758 0.709425
vn -0.709813 0.704384 0.00286868
vn 0.706489 0.707723 0.00108711
vn -0.00386371 0.707331 -0.706872
vn -0.00805933 0.999965 0.00225393
vn -2.54188e-006 0.00021686 -1
vn 0 -0.0017713 -0.999998
vn -2.54329e-006 0.000217961 -1
vn -5.08515e-006 0.00220612 -0.999998
vn 1 0.000434192 1.59007e-006
vn 0.999994 -0.00354277 0
vn 1 0.000433094 1.58963e-006
vn 0.99999 0.00441005 3.17968e-006
vn 4.29478e-006 -0.000219143 1
vn 0 0.0017713 0.999998
vn 4.29239e-006 -0.000218036 1
vn 8.58714e-006 -0.00220847 0.999998
vn -1 -0.000437801 -5.12408e-006
vn -0.999994 0.00354211 0
vn -1 -0.000438912 -5.12551e-006
vn -0.99999 -0.00441881 -1.02495e-005
vt 0.66333 0.914707
vt 0.728772 0.914707
vt 0.728772 0.980149
vt 0.66333 0.980149
vt 0.877133 0.958978
vt 0.877913 0.931507
vt 0.902804 0.907275
vt 0.900631 0.983
vt 0.875913 0.927507
vt 0.848419 0.927485
vt 0.825014 0.903284
vt 0.900804 0.903275
vt 0.847183 0.964468
vt 0.874634 0.964478
vt 0.898132 0.9885
vt 0.822416 0.9885
vt 0.845919 0.931985
vt 0.845183 0.959468
vt 0.820416 0.9835
vt 0.822514 0.907784
vt 0.875413 0.931507
vt 0.874634 0.958978
vt 0.847183 0.958968
vt 0.847919 0.931485
vt 0.230546 0.366878
vt 0.461458 0.367695
vt 0.461458 0.433137
vt 0.230546 0.432319
vt 0.0452982 0.433137
vt 0.045 0.367695
vt 0.230549 0.155382
vt 0.461461 0.154973
vt 0.461461 0.220415
vt 0.230549 0.220824
vt 0.045 0.220416
vt 0.0450943 0.154973
vt 0.230452 0.439627
vt 0.461364 0.438808
vt 0.461364 0.50425
vt 0.230452 0.505069
vt 0.045 0.50425
vt 0.0455079 0.438808
vt 0.230249 0.652657
vt 0.461162 0.653065
vt 0.461162 0.718507
vt 0.230249 0.718099
vt 0.0453033 0.718507
vt 0.045 0.653065
mtllib fence_v1.mtl
usemtl Default
g Default
f 1/1/1 2/2/1 3/3/1 4/4/1
f 10/5/2 12/6/2 11/7/2 9/8/2
f 12/9/3 6/10/3 5/11/3 11/12/3
f 8/13/4 10/14/4 9/15/4 7/16/4
f 6/17/5 8/18/5 7/19/5 5/20/5
f 12/21/6 10/22/6 8/23/6 6/24/6
f 14/25/7 2/26/8 1/27/8 13/28/9
f 13/28/9 5/29/10 7/30/10 14/25/7
f 15/31/11 3/32/12 2/33/12 14/34/13
f 14/34/13 7/35/14 9/36/14 15/31/11
f 16/37/15 4/38/16 3/39/16 15/40/17
f 15/40/17 9/41/18 11/42/18 16/37/15
f 13/43/19 1/44/20 4/45/20 16/46/21
f 16/46/21 11/47/22 5/48/22 13/43/19
