# OBJ written from D:\Modoproj\Unity_Stuff\Japanese Lanterns Pack\fence_v2.obj
# Units	meters

o fence_v2
v -0.0558273 0.00439002 -0.0548
v 0.0537726 0.00439002 -0.0548
v 0.0537726 0.00439002 0.0548
v -0.0558273 0.00439002 0.0548
v -0.0558273 0.701742 -0.0548
v -0.0245913 0.732672 -0.023564
v 0.0537726 0.701517 -0.0548
v 0.0225366 0.732715 -0.023564
v 0.0537726 0.700877 0.0548
v 0.0225366 0.732462 0.023564
v -0.0558273 0.701464 0.0548
v -0.0245913 0.732458 0.023564
v -0.0537726 0.522632 -0.055485
v 0.0558273 0.522632 -0.055485
v 0.0558273 0.522632 0.054115
v -0.0537726 0.522632 0.054115
vn 0 -1 0
vn 0.00262792 0.706501 0.707707
vn -0.703984 0.710212 0.00222955
vn 0.708852 0.705346 0.00402456
vn 0.000817945 0.709056 -0.705152
vn -0.000503342 0.999988 0.00496602
vn 1.95552e-006 0.00124636 -0.999999
vn 0 -0.00132178 -0.999999
vn 1.9649e-006 0.00125868 -0.999999
vn 3.92047e-006 0.00382689 -0.999993
vn 1 4.727e-006 8.62635e-006
vn 0.999992 -0.00396478 0
vn 1 -4.71218e-006 8.60584e-006
vn 0.999934 0.011506 3.36196e-005
vn -5.14888e-006 -0.00126367 0.999999
vn 0 0.00132178 0.999999
vn -5.12421e-006 -0.00125128 0.999999
vn -1.02732e-005 -0.00383681 0.999993
vn -1 4.70079e-006 -3.73423e-006
vn -0.999992 0.00396478 0
vn -1 -4.70063e-006 -3.7431e-006
vn -0.999934 -0.01148 -1.45636e-005
vt 0.499331 0.973836
vt 0.499331 0.908394
vt 0.564772 0.908394
vt 0.564772 0.973836
vt 0.758825 0.967459
vt 0.786321 0.967527
vt 0.810963 0.991656
vt 0.735273 0.991633
vt 0.793321 0.963027
vt 0.792578 0.935509
vt 0.815979 0.9115
vt 0.817963 0.987156
vt 0.760105 0.92903
vt 0.760825 0.956459
vt 0.737273 0.980633
vt 0.73533 0.905
vt 0.791578 0.924509
vt 0.764105 0.92453
vt 0.73933 0.9005
vt 0.814979 0.9005
vt 0.791321 0.959027
vt 0.763825 0.958959
vt 0.763105 0.93153
vt 0.790578 0.931509
vt 0.151947 0.22496
vt 0.461389 0.226187
vt 0.461389 0.291629
vt 0.151947 0.290402
vt 0.045 0.291629
vt 0.0451342 0.226187
vt 0.354444 0.576181
vt 0.045 0.57659
vt 0.045 0.511148
vt 0.354444 0.510739
vt 0.461263 0.511148
vt 0.460881 0.57659
vt 0.151781 0.581953
vt 0.461223 0.580726
vt 0.461223 0.646168
vt 0.151781 0.647395
vt 0.0453504 0.646168
vt 0.045 0.580726
vt 0.151953 0.296891
vt 0.461397 0.2973
vt 0.461397 0.362742
vt 0.151953 0.362333
vt 0.0451659 0.362742
vt 0.045 0.2973
mtllib fence_v2.mtl
usemtl Default
g Default
f 1/1/1 2/2/1 3/3/1 4/4/1
f 10/5/2 12/6/2 11/7/2 9/8/2
f 12/9/3 6/10/3 5/11/3 11/12/3
f 8/13/4 10/14/4 9/15/4 7/16/4
f 6/17/5 8/18/5 7/19/5 5/20/5
f 12/21/6 10/22/6 8/23/6 6/24/6
f 14/25/7 2/26/8 1/27/8 13/28/9
f 13/28/9 5/29/10 7/30/10 14/25/7
f 15/31/11 3/32/12 2/33/12 14/34/13
f 14/34/13 7/35/14 9/36/14 15/31/11
f 16/37/15 4/38/16 3/39/16 15/40/17
f 15/40/17 9/41/18 11/42/18 16/37/15
f 13/43/19 1/44/20 4/45/20 16/46/21
f 16/46/21 11/47/22 5/48/22 13/43/19
