# OBJ written from D:\Modoproj\Unity_Stuff\Japanese Lanterns Pack\gate_big_2.obj
# Units	meters

o gate_big_2
v -1.25999 0.02 -0.172219
v -1.3461 0.02 -0.149146
v -1.40914 0.02 -0.0861094
v -1.43221 0.02 3.82721e-008
v -1.40914 0.02 0.0861094
v -1.3461 0.02 0.149146
v -1.25999 0.02 0.172219
v -1.17388 0.02 0.149146
v -1.11084 0.02 0.0861094
v -1.08777 0.02 3.82721e-008
v -1.11084 0.02 -0.0861094
v -1.17388 0.02 -0.149146
v -1.25999 4.24 -0.155858
v -1.33792 4.24 -0.134977
v -1.39497 4.24 -0.077929
v -1.41585 4.24 3.82721e-008
v -1.39497 4.24 0.0779291
v -1.33792 4.24 0.134977
v -1.25999 4.24 0.155858
v -1.18206 4.24 0.134977
v -1.12501 4.24 0.0779291
v -1.10413 4.24 3.82721e-008
v -1.12501 4.24 -0.077929
v -1.18206 4.24 -0.134977
v -2.20932 4.45531 -0.19612
v 2.20934 4.45531 -0.19612
v 2.20934 4.45531 0.19612
v -2.20932 4.45531 0.19612
v -1.25999 0.97161 0.168529
v -1.17573 0.97161 0.145951
v -1.09146 0.97161 3.82721e-008
v -1.11404 0.97161 -0.0842647
v -1.40594 0.97161 -0.0842647
v -1.42852 0.97161 3.82721e-008
v -1.34425 0.97161 0.145951
v -1.11404 0.97161 0.0842648
v -1.17573 0.97161 -0.145951
v -1.25999 0.97161 -0.168529
v -1.34425 0.97161 -0.145951
v -1.40594 0.97161 0.0842648
v -1.61088 3.49319 -0.0796163
v 1.6109 3.49319 -0.0796163
v 1.6109 3.49319 0.0796163
v -1.61088 3.49319 0.0796163
v -1.61088 3.78681 -0.0796163
v 1.6109 3.78681 -0.0796163
v 1.6109 3.78681 0.0796163
v -1.61088 3.78681 0.0796163
v -2.0136 4.20319 -0.173006
v 2.01362 4.20319 -0.173006
v 2.01362 4.20319 0.173006
v -2.0136 4.20319 0.173006
v -2.09414 4.49681 -0.173006
v 2.09416 4.49681 -0.173006
v 2.09416 4.49681 0.173006
v -2.09414 4.49681 0.173006
v -2.35293 4.71765 -0.19612
v 2.35295 4.71765 -0.19612
v 2.35295 4.71765 0.19612
v -2.35293 4.71765 0.19612
v -2.37646 4.79069 -0.233382
v 2.37648 4.79069 -0.233382
v 2.37648 4.79069 0.233383
v -2.37646 4.79069 0.233383
v -2.37646 4.71765 -0.233382
v 2.37648 4.71765 -0.233382
v 2.37648 4.71765 0.233383
v -2.37646 4.71765 0.233383
v 1.27001 0.02 -0.172219
v 1.1839 0.02 -0.149146
v 1.12086 0.02 -0.0861094
v 1.09779 0.02 3.82721e-008
v 1.12086 0.02 0.0861094
v 1.1839 0.02 0.149146
v 1.27001 0.02 0.172219
v 1.35612 0.02 0.149146
v 1.41916 0.02 0.0861094
v 1.44223 0.02 3.82721e-008
v 1.41916 0.02 -0.0861094
v 1.35612 0.02 -0.149146
v 1.27001 4.24 -0.155858
v 1.19208 4.24 -0.134977
v 1.13503 4.24 -0.077929
v 1.11415 4.24 3.82721e-008
v 1.13503 4.24 0.0779291
v 1.19208 4.24 0.134977
v 1.27001 4.24 0.155858
v 1.34794 4.24 0.134977
v 1.40499 4.24 0.0779291
v 1.42587 4.24 3.82721e-008
v 1.40499 4.24 -0.077929
v 1.34794 4.24 -0.134977
v 1.27001 0.97161 0.168529
v 1.35427 0.97161 0.145951
v 1.43854 0.97161 3.82721e-008
v 1.41596 0.97161 -0.0842647
v 1.12406 0.97161 -0.0842647
v 1.10148 0.97161 3.82721e-008
v 1.18575 0.97161 0.145951
v 1.41596 0.97161 0.0842648
v 1.35427 0.97161 -0.145951
v 1.27001 0.97161 -0.168529
v 1.18575 0.97161 -0.145951
v 1.12406 0.97161 0.0842648
vn 0 -1 0
vn 0 -1 0
vn 0 1 0
vn 0 0.00387693 0.999993
vn -6.85187e-009 0.00387697 0.999992
vn 0.499996 0.00387694 0.866019
vn 0.499996 0.00387693 0.866019
vn 0 0.00387701 0.999992
vn 0.499996 0.00387694 0.866019
vn 0.999993 0.00387694 1.3695e-008
vn 0.999992 0.00387695 2.74075e-008
vn 0.866019 0.00387694 -0.499996
vn 0.866019 0.00387695 -0.499996
vn 0.999992 0.00387696 2.7425e-008
vn 0.866019 0.00387692 -0.499996
vn -0.866019 0.00387695 -0.499996
vn -0.866019 0.00387694 -0.499996
vn -0.999992 0.00387695 -1.37037e-008
vn -0.999993 0.00387694 -1.3695e-008
vn -0.866019 0.00387692 -0.499996
vn -0.999992 0.00387696 0
vn -0.499996 0.00387693 0.866019
vn -0.499996 0.00387694 0.866019
vn -0.499996 0.00387694 0.866019
vn 0.866019 0.00387694 0.499996
vn 0.866019 0.00387693 0.499996
vn 0.866019 0.00387692 0.499996
vn 0.499996 0.00387696 -0.866019
vn 0.499996 0.00387692 -0.866019
vn 0 0.00387692 -0.999993
vn 0 0.00387696 -0.999993
vn 0.499996 0.00387687 -0.866019
vn 0 0.00387688 -0.999992
vn -0.499996 0.00387696 -0.866019
vn -0.499996 0.00387692 -0.866019
vn -0.499996 0.00387688 -0.866019
vn -0.866019 0.00387694 0.499996
vn -0.866019 0.00387693 0.499996
vn -0.866019 0.00387692 0.499996
vn 0 0 -1
vn 1 0 0
vn 0 0 1
vn -1 0 0
vn 0.964375 -0.264538 0
vn -0.964375 -0.264538 0
vn 0 0 -1
vn 0.877173 -0.480175 0
vn 0.877173 -0.480175 0
vn 0 0 1
vn -0.877173 -0.480175 0
vn -0.877173 -0.480175 0
vn 0 -1 -2.66122e-006
vn 0 -1 -3.76949e-006
vn 0 -1 2.66122e-006
vn 0 -1 3.76949e-006
vn 1 0 0
vn -1 0 0
vn 0 0.00387693 0.999993
vn -6.85187e-009 0.00387697 0.999992
vn 0.499996 0.00387696 0.866019
vn 0.499996 0.00387699 0.866019
vn 0.866019 0.00387693 -0.499996
vn 0.866019 0.00387694 -0.499996
vn -0.866019 0.00387694 -0.499996
vn -0.866019 0.00387693 -0.499996
vn -0.999992 0.00387698 -1.37037e-008
vn -0.999993 0.00387691 -1.3695e-008
vn -0.866019 0.00387692 -0.499996
vn -0.999992 0.00387705 0
vn -0.499996 0.00387693 0.866019
vn -0.499996 0.00387694 0.866019
vn 0.866019 0.00387695 0.499996
vn 0.866019 0.00387696 0.499996
vn 0.499996 0.00387695 -0.866019
vn 0.499996 0.00387691 -0.866019
vn -0.499996 0.00387697 -0.866019
vn -0.499996 0.0038769 -0.866019
vn -0.499996 0.00387684 -0.866019
vn -0.866019 0.00387693 0.499996
vn -0.866019 0.00387694 0.499996
vn -0.866019 0.00387696 0.499996
vt 0.170991 0.809088
vt 0.155882 0.817811
vt 0.138435 0.817811
vt 0.123326 0.809088
vt 0.114603 0.793978
vt 0.114602 0.776532
vt 0.123326 0.761423
vt 0.138435 0.752699
vt 0.155882 0.752699
vt 0.170991 0.761423
vt 0.179714 0.776532
vt 0.179714 0.793979
vt 0.140176 0.663642
vt 0.155965 0.663642
vt 0.169639 0.671537
vt 0.177534 0.685211
vt 0.177534 0.701
vt 0.169639 0.714673
vt 0.155966 0.722568
vt 0.140176 0.722568
vt 0.126503 0.714673
vt 0.118608 0.701
vt 0.118608 0.68521
vt 0.126502 0.671537
vt 0.397165 0.0530547
vt 0.397165 0.884551
vt 0.322273 0.884551
vt 0.322273 0.0530546
vt 0.0650497 0.649799
vt 0.061214 0.0101537
vt 0.0782858 0.0100683
vt 0.0808389 0.64972
vt 0.946077 0.22595
vt 0.759845 0.227071
vt 0.759757 0.209626
vt 0.945991 0.208878
vt 0.112418 0.649658
vt 0.11243 0.01
vt 0.129502 0.0100172
vt 0.128207 0.649674
vt 0.945923 0.174732
vt 0.759686 0.174733
vt 0.759703 0.157286
vt 0.94594 0.157659
vt 0.191363 0.650056
vt 0.197788 0.0104278
vt 0.214859 0.010616
vt 0.207152 0.65023
vt 0.946351 0.0893686
vt 0.760121 0.0875007
vt 0.760313 0.0700546
vt 0.946539 0.0722966
vt 0.0492607 0.64991
vt 0.0441423 0.0102734
vt 0.946197 0.243023
vt 0.759968 0.244517
vt 0.0966282 0.649673
vt 0.0953577 0.010017
vt 0.94594 0.191805
vt 0.759704 0.192179
vt 0.143996 0.649722
vt 0.146574 0.0100685
vt 0.163645 0.0101541
vt 0.159785 0.649802
vt 0.945991 0.140586
vt 0.759755 0.13984
vt 0.759842 0.122393
vt 0.946077 0.123514
vt 0.175575 0.649913
vt 0.180717 0.0102739
vt 0.946196 0.106441
vt 0.759964 0.104947
vt 0.033472 0.650052
vt 0.027071 0.0104273
vt 0.946351 0.260095
vt 0.760126 0.261963
vt 0.0176836 0.650226
vt 0.01 0.0106153
vt 0.946539 0.277167
vt 0.760318 0.279408
vt 0.940404 0.333249
vt 0.940405 0.963768
vt 0.909242 0.963768
vt 0.909242 0.333249
vt 0.640521 0.966286
vt 0.01 0.966286
vt 0.01 0.908822
vt 0.640521 0.908822
vt 0.79882 0.41072
vt 0.767657 0.41072
vt 0.767657 0.353255
vt 0.79882 0.353255
vt 0.815686 0.947769
vt 0.815686 0.317249
vt 0.87315 0.317249
vt 0.87315 0.947769
vt 0.197297 0.89155
vt 0.166134 0.89155
vt 0.166134 0.834086
vt 0.197297 0.834086
vt 0.849211 0.01
vt 0.849211 0.0411627
vt 0.21869 0.0411627
vt 0.21869 0.01
vt 0.470973 0.0700548
vt 0.470973 0.858205
vt 0.404908 0.858205
vt 0.404908 0.0700546
vt 0.557029 0.858205
vt 0.557029 0.0700546
vt 0.614493 0.0700546
vt 0.614493 0.858205
vt 0.0816349 0.72055
vt 0.0155698 0.72055
vt 0.0155697 0.663086
vt 0.0816348 0.663086
vt 0.485473 0.858206
vt 0.485473 0.0700546
vt 0.542937 0.0700547
vt 0.542937 0.858206
vt 0.080093 0.837762
vt 0.146158 0.837762
vt 0.146158 0.895226
vt 0.0800929 0.895226
vt 0.679926 0.889553
vt 0.628585 0.889553
vt 0.628585 0.0580546
vt 0.679926 0.0580546
vt 0.0155369 0.805983
vt 0.0155369 0.754642
vt 0.090428 0.754642
vt 0.0904282 0.805983
vt 0.743476 0.901552
vt 0.692135 0.901553
vt 0.692135 0.0700546
vt 0.743476 0.0700546
vt 0.0145424 0.822193
vt 0.0658835 0.822193
vt 0.0658832 0.897084
vt 0.0145425 0.897084
vt 0.99 0.0742125
vt 0.99 0.905718
vt 0.982885 0.909875
vt 0.982885 0.0700546
vt 0.786839 0.578285
vt 0.78684 0.653177
vt 0.782683 0.660291
vt 0.782682 0.571171
vt 0.979491 0.0742116
vt 0.97949 0.905713
vt 0.972376 0.909871
vt 0.972376 0.0700546
vt 0.781839 0.6932
vt 0.78184 0.768091
vt 0.777682 0.775205
vt 0.777682 0.686086
vt 0.0100001 0.989671
vt 0.0100001 0.975378
vt 0.849815 0.975378
vt 0.849815 0.989671
vt 0.775665 0.449171
vt 0.789958 0.449171
vt 0.789958 0.538292
vt 0.775665 0.538291
vt 0.968653 0.909857
vt 0.954359 0.909857
vt 0.954359 0.0700546
vt 0.968652 0.0700546
vt 0.773665 0.786086
vt 0.787958 0.786086
vt 0.787958 0.875207
vt 0.773665 0.875207
vt 0.219189 0.0530546
vt 0.308309 0.0530546
vt 0.308309 0.892868
vt 0.219189 0.892868
mtllib gate_big_2.mtl
usemtl Default
g Default
f 1/1/1 12/2/2 11/3/2 10/4/1 9/5/2 8/6/2 7/7/1 6/8/2 5/9/2 4/10/1 3/11/2 2/12/2
f 13/13/3 14/14/3 15/15/3 16/16/3 17/17/3 18/18/3 19/19/3 20/20/3 21/21/3 22/22/3 23/23/3 24/24/3
f 25/25/1 26/26/1 27/27/1 28/28/1
f 19/29/4 29/30/5 30/31/6 20/32/7
f 29/33/5 7/34/8 8/35/9 30/36/6
f 22/37/10 31/38/11 32/39/12 23/40/13
f 31/41/11 10/42/14 11/43/15 32/44/12
f 15/45/16 33/46/17 34/47/18 16/48/19
f 33/49/17 3/50/20 4/51/21 34/52/18
f 18/53/22 35/54/23 29/30/5 19/29/4
f 35/55/23 6/56/24 7/34/8 29/33/5
f 21/57/25 36/58/26 31/38/11 22/37/10
f 36/59/26 9/60/27 10/42/14 31/41/11
f 24/61/28 37/62/29 38/63/30 13/64/31
f 37/65/29 12/66/32 1/67/33 38/68/30
f 14/69/34 39/70/35 33/46/17 15/45/16
f 39/71/35 2/72/36 3/50/20 33/49/17
f 17/73/37 40/74/38 35/54/23 18/53/22
f 40/75/38 5/76/39 6/56/24 35/55/23
f 20/32/7 30/31/6 36/58/26 21/57/25
f 30/36/6 8/35/9 9/60/27 36/59/26
f 23/40/13 32/39/12 37/62/29 24/61/28
f 32/44/12 11/43/15 12/66/32 37/65/29
f 13/64/31 38/63/30 39/70/35 14/69/34
f 38/68/30 1/67/33 2/72/36 39/71/35
f 16/77/19 34/78/18 40/74/38 17/73/37
f 34/79/18 4/80/21 5/76/39 40/75/38
f 41/81/2 42/82/2 43/83/2 44/84/2
f 45/85/40 46/86/40 42/87/40 41/88/40
f 46/89/41 47/90/41 43/91/41 42/92/41
f 47/93/42 48/94/42 44/95/42 43/96/42
f 48/97/43 45/98/43 41/99/43 44/100/43
f 45/101/3 48/102/3 47/103/3 46/104/3
f 49/105/1 50/106/1 51/107/1 52/108/1
f 53/109/40 54/110/40 50/111/40 49/112/40
f 54/113/44 55/114/44 51/115/44 50/116/44
f 55/117/42 56/118/42 52/119/42 51/120/42
f 56/121/45 53/122/45 49/123/45 52/124/45
f 58/125/46 26/126/40 25/127/40 57/128/46
f 59/129/47 27/130/48 26/131/48 58/132/47
f 60/133/49 28/134/42 27/135/42 59/136/49
f 57/137/50 25/138/51 28/139/51 60/140/50
f 60/141/52 59/142/52 67/143/53 68/144/53
f 59/145/52 58/146/54 66/147/55 67/148/53
f 58/149/54 57/150/54 65/151/55 66/152/55
f 57/153/54 60/154/52 68/155/53 65/156/55
f 65/157/40 61/158/46 62/159/46 66/160/40
f 66/161/41 62/162/56 63/163/56 67/164/41
f 67/165/42 63/166/49 64/167/49 68/168/42
f 68/169/43 64/170/57 61/171/57 65/172/43
f 61/173/3 64/174/3 63/175/3 62/176/3
f 69/1/1 80/2/2 79/3/2 78/4/1 77/5/2 76/6/2 75/7/1 74/8/2 73/9/2 72/10/1 71/11/2 70/12/2
f 81/13/3 82/14/3 83/15/3 84/16/3 85/17/3 86/18/3 87/19/3 88/20/3 89/21/3 90/22/3 91/23/3 92/24/3
f 87/29/58 93/30/59 94/31/60 88/32/7
f 93/33/59 75/34/8 76/35/61 94/36/60
f 90/37/10 95/38/11 96/39/62 91/40/63
f 95/41/11 78/42/14 79/43/15 96/44/62
f 83/45/64 97/46/65 98/47/66 84/48/67
f 97/49/65 71/50/68 72/51/69 98/52/66
f 86/53/70 99/54/71 93/30/59 87/29/58
f 99/55/71 74/56/24 75/34/8 93/33/59
f 89/57/25 100/58/72 95/38/11 90/37/10
f 100/59/72 77/60/73 78/42/14 95/41/11
f 92/61/74 101/62/75 102/63/30 81/64/31
f 101/65/75 80/66/32 69/67/33 102/68/30
f 82/69/76 103/70/77 97/46/65 83/45/64
f 103/71/77 70/72/78 71/50/68 97/49/65
f 85/73/79 104/74/80 99/54/71 86/53/70
f 104/75/80 73/76/81 74/56/24 99/55/71
f 88/32/7 94/31/60 100/58/72 89/57/25
f 94/36/60 76/35/61 77/60/73 100/59/72
f 91/40/63 96/39/62 101/62/75 92/61/74
f 96/44/62 79/43/15 80/66/32 101/65/75
f 81/64/31 102/63/30 103/70/77 82/69/76
f 102/68/30 69/67/33 70/72/78 103/71/77
f 84/77/67 98/78/66 104/74/80 85/73/79
f 98/79/66 72/80/69 73/76/81 104/75/80
